<svg xmlns="http://www.w3.org/2000/svg" width="44" height="52" viewBox="0 0 44 52"><ellipse cx="4" cy="4.5" rx="4" ry="4.5" transform="translate(23)"/><path d="M33.92,12.278c-1.225-.207-6.339-1.245-6.605-1.348-.16-.052-.16-.052-.213-.156-.107-.156-4.741-8.09-5.167-8.557A4.7,4.7,0,0,0,18.685.142a5.02,5.02,0,0,0-3.249.363S7.392,4.862,6.913,5.173a2.93,2.93,0,0,0-.959,1.193l-4.741,6.9A2.033,2.033,0,0,0,.84,15.182a2.173,2.173,0,0,0,1.758,1.5,2.6,2.6,0,0,0,2.663-1.608L9.789,8.647l2.237-.985c-.16.467-1.971,10.061-1.971,10.061L8.245,29.08.787,37.274a2.535,2.535,0,0,0-.746,2.282,2.4,2.4,0,0,0,2.131,2.023,2.972,2.972,0,0,0,2.663-1.037c1.278-1.5,8.15-8.92,8.736-9.646a3.585,3.585,0,0,0,.959-1.763c.107-.519,1.119-7.468,1.119-7.468l6.872,6.431L23.8,39.711h0a2.711,2.711,0,0,0,2.823,2.282,2.554,2.554,0,0,0,2.45-2.334v-.311c-.053-1.763-1.278-10.579-1.278-12.55.053-2.23-.8-2.7-.959-2.9-.213-.259-6.659-6.638-6.659-6.638L21.4,9.84s2.184,3.423,2.4,3.786a2.846,2.846,0,0,0,1.385,1.193c.586.1,8.31,1.66,8.31,1.66h.32A2.1,2.1,0,0,0,36,14.352,2.131,2.131,0,0,0,33.92,12.278Z" transform="translate(8 10)"/><path d="M7.993,12.623l-7-4.715A2.268,2.268,0,0,1,.362,4.817L2.923.992A2.255,2.255,0,0,1,6.007.363l7,4.715a2.268,2.268,0,0,1,.627,3.091l-2.561,3.825A2.208,2.208,0,0,1,7.993,12.623Z" transform="translate(0 25)"/></svg>