<svg xmlns="http://www.w3.org/2000/svg" width="52.082" height="51.1" viewBox="0 0 52.082 51.1"><g transform="translate(-0.442 -0.434)"><path d="M21.438,29.3.714,8.967a2.3,2.3,0,0,1,0-3.334L5.742.7a2.411,2.411,0,0,1,3.4,0L29.8,20.966a2.3,2.3,0,0,1,0,3.334l-5.028,4.933a2.39,2.39,0,0,1-3.329.067Z" transform="translate(0.442 0.433)"/><path d="M18.958,15.4l-.612.533L2.106,0,0,2.067,16.24,18l-.544.6,6.047,5.867,3.194-3.133Z" transform="translate(27.587 27.067)"/><path d="M25.095,2.45a3.961,3.961,0,0,1-3.262,1.133,4.525,4.525,0,0,1-2.514-1.267L17.077.05a.21.21,0,0,0-.272,0L15.31,1.517l-1.631,1.6a.253.253,0,0,1-.2.067A10.191,10.191,0,0,0,2.944,5.517a9.814,9.814,0,0,0-2.65,9.4.2.2,0,0,0,.34.067l4.485-4.4a2.536,2.536,0,0,1,3.6,0l3.329,3.267a2.423,2.423,0,0,1,0,3.533l-4.485,4.4c-.136.133-.068.267.068.333a10.265,10.265,0,0,0,9.581-2.6A9.861,9.861,0,0,0,19.591,9.183a.242.242,0,0,1,.068-.2L21.222,7.45l4.824-4.733-.612-.6Z" transform="translate(1.269 28.35)"/><path d="M2.293,19.021a3.971,3.971,0,0,1,0,5.733l-.2.2.612.6,4.824-4.733,1.563-1.533a.253.253,0,0,1,.2-.067,10.191,10.191,0,0,0,10.532-2.333,9.814,9.814,0,0,0,2.65-9.4.2.2,0,0,0-.34-.067l-4.485,4.4a2.536,2.536,0,0,1-3.6,0L10.719,8.555a2.423,2.423,0,0,1,0-3.533L15.2.621c.136-.133.068-.267-.068-.333a10.265,10.265,0,0,0-9.581,2.6A9.861,9.861,0,0,0,3.177,13.221a.242.242,0,0,1-.068.2L1.546,14.955.051,16.421a.2.2,0,0,0,0,.267Z" transform="translate(28.963 1.179)"/></g></svg>