<svg xmlns="http://www.w3.org/2000/svg" width="74" height="52" viewBox="0 0 74 52"><circle cx="4" cy="4" r="4" transform="translate(6)"/><path d="M12.774.936a6.29,6.29,0,0,0-6.6,0C1.908,3.471-.382,10.467.052,19.647A1.6,1.6,0,0,0,3.247,19.5,30.114,30.114,0,0,1,4.463,8.557q.181-.526.388-1.009v13.5h.014V41.062a1.939,1.939,0,0,0,3.877,0V21.045h1.426V41.074a1.939,1.939,0,0,0,3.877,0V21.045h.013V7.412q.247.556.461,1.171A29.854,29.854,0,0,1,15.754,19.5a1.59,1.59,0,0,0,1.523,1.66l.076,0a1.6,1.6,0,0,0,1.6-1.514C19.38,10.487,17.071,3.491,12.774.936Z" transform="translate(0 9)"/><path d="M6.4,32.307A25.673,25.673,0,0,1,7.492,16.365L0,6.9,12.557,8.384a26.082,26.082,0,1,1,25.6,42.834A26.42,26.42,0,0,1,31.785,52,26.162,26.162,0,0,1,6.4,32.307Z" transform="translate(16)"/><path d="M0,22V0H22V22Z" transform="translate(36 15)"/></svg>